<?xml version="1.0" encoding="UTF-8"?>
<svg id="Warstwa_1" data-name="Warstwa 1" xmlns="http://www.w3.org/2000/svg" viewBox="0 0 379.35 118.98">
  <defs>
    <style>
      .cls-1 {
        fill: #03f;
        stroke-width: 0px;
      }
    </style>
  </defs>
  <path class="cls-1" d="m166.22,55.18h-16.33v-15.18h-9.5v39h9.5v-15.18h16.33v15.18h9.5v-39h-9.5v15.18Zm-51.18-15.95c-11.31,0-17.64,5.03-17.64,16.5v23.27h9.5v-23.05c0-5.57,2.62-8.03,8.14-8.03s8.19,2.46,8.19,8.03v23.05h9.51v-23.27c0-11.47-6.61-16.5-17.7-16.5Zm-39.85.77h-11.14l-14.04,16.99h-.55v-16.99h-9.51v39h9.51v-16.93h.55l13.98,16.93h12.29l-16.61-20.1,15.51-18.9Zm5.11,39h9.5v-39h-9.5v39Zm121.87-39.77c-12.51,0-20.16,7.27-20.16,20.27s7.65,20.27,20.16,20.27,20.1-7.27,20.1-20.27-7.65-20.27-20.1-20.27Zm0,31.85c-6.17,0-10.11-4.32-10.11-11.58s3.93-11.58,10.11-11.58,10.05,4.31,10.05,11.58-3.93,11.58-10.05,11.58Zm51.92-8.03c0,5.57-2.62,8.03-8.14,8.03s-8.19-2.46-8.19-8.03v-23.05h-9.5v23.27c0,11.47,6.61,16.5,17.7,16.5s17.64-5.03,17.64-16.5v-23.27h-9.5v23.05Zm64.91,7.32v-6.55h17.64v-8.63h-17.64v-6.55h20.1v-8.63h-29.61v39h29.88v-8.63h-20.37Zm-39.16-19.61c0-2.62,2.57-3.39,6.5-3.39,4.97,0,6.72,1.91,6.72,4.53,0,.33,0,.6-.05.93h9.5c.05-.44.05-.93.05-1.37,0-7.59-5.35-12.24-16.72-12.24-9.12,0-16.06,4.37-16.06,12.29,0,14.8,23.16,10.21,23.16,16.66,0,2.51-2.19,3.44-6.5,3.44-3.99,0-6.99-1.2-6.99-4.64,0-.27,0-.55.05-.82h-9.5c-.05.44-.05.87-.05,1.31,0,5.46,3.06,12.29,16.99,12.29,9.61,0,16.06-4.75,16.06-12.29,0-14.69-23.16-10.32-23.16-16.72Z"/>
</svg>