<?xml version="1.0" encoding="UTF-8"?>
<svg id="Warstwa_1" data-name="Warstwa 1" xmlns="http://www.w3.org/2000/svg" viewBox="0 0 191.35 191.34">
  <defs>
    <style>
      .cls-1 {
        fill: #03f;
        stroke-width: 0px;
      }
    </style>
  </defs>
  <path class="cls-1" d="m148.46,65.75c-3.9-3.9-10.23-3.9-14.13,0l-15.8,15.8-8.73-8.73,15.8-15.8c3.9-3.9,3.9-10.23,0-14.13-3.9-3.9-10.23-3.9-14.13,0l-28.66,28.67v-21.6c0-5.52-4.47-9.99-9.99-9.99s-9.99,4.47-9.99,9.99v21.6l-5.8-5.8c-3.9-3.9-10.23-3.9-14.13,0-3.9,3.9-3.9,10.23,0,14.13l45.72,45.72c3.9,3.9,10.23,3.9,14.13,0l45.72-45.72c3.9-3.9,3.9-10.23,0-14.13Zm-85.62,30.41l-18.12-18.12c-2.89-2.89-2.89-7.57,0-10.46s7.57-2.89,10.46,0l10.23,10.23v-27.86c0-4.09,3.31-7.4,7.4-7.4s7.4,3.31,7.4,7.4v24.19l-3.2,3.2v-27.4c0-2.32-1.88-4.19-4.19-4.19s-4.19,1.88-4.19,4.19v35.59l-15.7-15.7c-1.64-1.64-4.29-1.64-5.93,0-1.64,1.64-1.64,4.29,0,5.93l16.45,16.45c-.46,1.27-.66,2.61-.59,3.94Zm11.57-46.21v29.99l-3.2,3.2v-33.19c0-.88.72-1.6,1.6-1.6s1.6.72,1.6,1.6Zm-25.59,23.99c-.63-.63-.63-1.64,0-2.27.63-.63,1.64-.63,2.27,0l15.8,15.8-1.13,1.13c-.39.39-.73.8-1.04,1.22l-15.89-15.89Zm36.88,45.08l-13.38-13.38c1.33.06,2.67-.13,3.94-.59l10.04,10.04c-.46,1.27-.66,2.61-.59,3.94Zm-7.05-15.24c.43-.31.84-.66,1.23-1.04l1.13-1.13,8.73,8.73-1.13,1.13c-.39.39-.73.8-1.04,1.22l-8.91-8.91Zm22.25,19.98c-2.89,2.89-7.57,2.89-10.46,0-2.89-2.89-2.89-7.57,0-10.46l7.64-7.64h4.53l-9.9,9.9c-1.64,1.64-1.64,4.29,0,5.93,1.64,1.64,4.29,1.64,5.93,0l15.83-15.83h4.06c.17,0,.33-.02.5-.03l-18.13,18.13Zm5.37-18.1h4.53l-14,14c-.63.63-1.64.63-2.27,0-.63-.63-.63-1.64,0-2.27l11.74-11.74Zm12.26-2.59h-27.86s3.17,3.17,3.17,3.17l-2.27,2.27-8.64-8.64h35.59c2.32,0,4.19-1.88,4.19-4.19s-1.88-4.19-4.19-4.19h-27.4l3.2-3.2h24.19c4.09,0,7.4,3.31,7.4,7.4s-3.31,7.4-7.4,7.4Zm-33.19-5.8l3.2-3.2h29.99c.88,0,1.6.72,1.6,1.6s-.72,1.6-1.6,1.6h-33.19Zm20.94-11.59l-10.6-10.6-21.73,21.73c-.63.63-1.64.63-2.27,0-.63-.63-.63-1.64,0-2.27l45.72-45.72c.63-.63,1.64-.63,2.27,0,.63.63.63,1.64,0,2.27l-21.73,21.73,12.87,12.87h-4.53Zm18.09,1.89l15.89-15.89c.63-.63,1.64-.63,2.27,0,.63.63.63,1.64,0,2.27l-15.89,15.89c-.63-.87-1.39-1.64-2.27-2.27Zm22.26-9.53l-18.13,18.13c0-.17.03-.33.03-.5,0-1.21-.23-2.36-.62-3.44l16.46-16.46c1.64-1.64,1.64-4.29,0-5.93-1.64-1.64-4.29-1.64-5.93,0l-16.46,16.46c-1.07-.39-2.23-.62-3.44-.62h-4.06l-12.87-12.87,19.89-19.89c1.64-1.64,1.64-4.29,0-5.93-1.64-1.64-4.29-1.64-5.93,0l-45.72,45.72c-1.64,1.64-1.64,4.29,0,5.93,1.64,1.64,4.29,1.64,5.93,0l19.89-19.89,6.94,6.94h-4.53l-2.41-2.41-17.63,17.63c-2.89,2.89-7.57,2.89-10.46,0h0c-2.89-2.9-2.89-7.58,0-10.46l45.72-45.72c2.89-2.89,7.57-2.89,10.46,0,2.89,2.89,2.89,7.57,0,10.46l-17.63,17.63,12.4,12.4,17.63-17.63c2.89-2.89,7.57-2.89,10.46,0,2.89,2.89,2.89,7.57,0,10.46Zm-75.83,60.07c-3.77,0-5.88,1.68-5.88,5.5v7.76h3.17v-7.68c0-1.86.87-2.68,2.71-2.68s2.73.82,2.73,2.68v7.68h3.17v-7.76c0-3.82-2.2-5.5-5.9-5.5Zm-13.28.26h-3.71l-4.68,5.66h-.18v-5.66h-3.17v13h3.17v-5.65h.18l4.66,5.65h4.1l-5.54-6.7,5.17-6.3Zm1.7,13h3.17v-13h-3.17v13Zm28.64-7.94h-5.44v-5.06h-3.17v13h3.17v-5.06h5.44v5.06h3.17v-13h-3.17v5.06Zm50.94,2.88h5.88v-2.88h-5.88v-2.19h6.7v-2.88h-9.87v13h9.96v-2.88h-6.79v-2.19Zm-38.95-8.19c-4.17,0-6.72,2.42-6.72,6.76s2.55,6.76,6.72,6.76,6.7-2.42,6.7-6.76-2.55-6.76-6.7-6.76Zm0,10.62c-2.06,0-3.37-1.44-3.37-3.86s1.31-3.86,3.37-3.86,3.35,1.44,3.35,3.86-1.31,3.86-3.35,3.86Zm25.89-6.77c0-.87.86-1.13,2.17-1.13,1.66,0,2.24.64,2.24,1.51,0,.11,0,.2-.02.31h3.17c.02-.15.02-.31.02-.46,0-2.53-1.78-4.08-5.57-4.08-3.04,0-5.35,1.46-5.35,4.1,0,4.94,7.72,3.41,7.72,5.55,0,.84-.73,1.15-2.17,1.15-1.33,0-2.33-.4-2.33-1.55,0-.09,0-.18.02-.27h-3.17c-.02.15-.02.29-.02.44,0,1.82,1.02,4.1,5.66,4.1,3.2,0,5.35-1.58,5.35-4.1,0-4.9-7.72-3.44-7.72-5.57Zm-8.58,4.1c0,1.86-.87,2.68-2.71,2.68s-2.73-.82-2.73-2.68v-7.68h-3.17v7.76c0,3.82,2.2,5.5,5.9,5.5s5.88-1.68,5.88-5.5v-7.76h-3.17v7.68Z"/>
</svg>