<?xml version="1.0" encoding="UTF-8"?>
<svg id="Warstwa_1" data-name="Warstwa 1" xmlns="http://www.w3.org/2000/svg" viewBox="0 0 528.68 180.51">
  <defs>
    <style>
      .cls-1 {
        fill: #03f;
        stroke-width: 0px;
      }
    </style>
  </defs>
  <path class="cls-1" d="m147.14,69.25l-17.94,17.94-9.92-9.92,17.94-17.94c4.43-4.43,4.43-11.62,0-16.05s-11.62-4.43-16.05,0l-32.56,32.56v-24.53c0-6.27-5.08-11.35-11.35-11.35s-11.35,5.08-11.35,11.35v24.53l-6.59-6.59c-4.43-4.43-11.62-4.43-16.05,0-4.43,4.43-4.43,11.62,0,16.05l51.93,51.93c4.43,4.43,11.62,4.43,16.05,0l51.93-51.93c4.43-4.43,4.43-11.62,0-16.05-4.43-4.43-11.62-4.43-16.05,0Zm-81.19,34.54l-20.58-20.58c-3.28-3.28-3.28-8.6,0-11.88,3.28-3.28,8.6-3.28,11.88,0l11.62,11.62v-31.64c0-4.64,3.76-8.4,8.4-8.4s8.4,3.76,8.4,8.4v27.48l-3.64,3.64v-31.12c0-2.63-2.13-4.76-4.76-4.76s-4.76,2.13-4.76,4.76v40.43l-17.83-17.83c-1.86-1.86-4.88-1.86-6.74,0-1.86,1.86-1.86,4.88,0,6.74l18.68,18.68c-.53,1.44-.75,2.96-.68,4.47Zm13.14-52.49v34.06l-3.64,3.64v-37.7c0-1,.81-1.82,1.82-1.82s1.82.81,1.82,1.82Zm-29.07,27.25c-.71-.71-.71-1.86,0-2.57.71-.71,1.86-.71,2.57,0l17.94,17.94-1.29,1.29c-.44.44-.83.9-1.18,1.39l-18.05-18.05Zm41.89,51.2l-15.19-15.19c1.51.07,3.03-.15,4.47-.68l11.4,11.4c-.53,1.44-.75,2.96-.68,4.47Zm-8.01-17.31c.49-.35.95-.74,1.39-1.18l1.29-1.29,9.92,9.92-1.29,1.29c-.44.44-.83.9-1.18,1.39l-10.12-10.12Zm25.27,22.7c-3.28,3.28-8.6,3.28-11.88,0-3.28-3.28-3.28-8.6,0-11.88l8.68-8.68h5.15l-11.25,11.25c-1.86,1.86-1.86,4.88,0,6.74,1.86,1.86,4.88,1.86,6.74,0l17.99-17.99h4.61c.19,0,.38-.02.56-.03l-20.59,20.59Zm6.1-20.56h5.15l-15.9,15.9c-.71.71-1.86.71-2.57,0-.71-.71-.71-1.86,0-2.57l13.33-13.33Zm13.92-2.95h-31.64s3.6,3.6,3.6,3.6l-2.57,2.57-9.81-9.81h40.43c2.63,0,4.76-2.13,4.76-4.76s-2.13-4.76-4.76-4.76h-31.12l3.64-3.64h27.48c4.64,0,8.4,3.76,8.4,8.4s-3.76,8.4-8.4,8.4Zm-37.7-6.58l3.64-3.64h34.06c1.01,0,1.82.81,1.82,1.82s-.81,1.82-1.82,1.82h-37.7Zm23.78-13.17l-12.04-12.04-24.68,24.68c-.71.71-1.86.71-2.57,0-.71-.71-.71-1.86,0-2.57l51.93-51.93c.71-.71,1.86-.71,2.57,0,.71.71.71,1.86,0,2.57l-24.68,24.68,14.62,14.62h-5.15Zm20.55,2.15l18.05-18.05c.71-.71,1.86-.71,2.57,0,.71.71.71,1.86,0,2.57l-18.05,18.05c-.71-.99-1.58-1.86-2.57-2.57Zm25.28-10.82l-20.59,20.59c0-.19.03-.37.03-.56,0-1.37-.26-2.69-.7-3.91l18.69-18.69c1.86-1.86,1.86-4.88,0-6.74-1.86-1.86-4.88-1.86-6.74,0l-18.69,18.69c-1.22-.45-2.53-.7-3.91-.7h-4.61l-14.62-14.62,22.6-22.6c1.86-1.86,1.86-4.88,0-6.74-1.86-1.86-4.88-1.86-6.74,0l-51.93,51.93c-1.86,1.86-1.86,4.88,0,6.74s4.88,1.86,6.74,0l22.6-22.6,7.88,7.88h-5.15l-2.73-2.73-20.02,20.02c-3.28,3.28-8.6,3.28-11.88,0h0c-3.28-3.29-3.28-8.61,0-11.89l51.93-51.93c3.28-3.28,8.6-3.28,11.88,0,3.28,3.28,3.28,8.6,0,11.88l-20.02,20.02,14.08,14.08,20.02-20.02c3.28-3.28,8.6-3.28,11.88,0,3.28,3.28,3.28,8.6,0,11.88Zm268.07,3.06c0-2.62,2.57-3.39,6.5-3.39,4.97,0,6.72,1.91,6.72,4.53,0,.33,0,.6-.05.93h9.5c.05-.44.05-.93.05-1.37,0-7.59-5.35-12.24-16.72-12.24-9.12,0-16.06,4.37-16.06,12.29,0,14.8,23.16,10.21,23.16,16.66,0,2.51-2.19,3.44-6.5,3.44-3.99,0-6.99-1.2-6.99-4.64,0-.27,0-.55.05-.82h-9.5c-.05.44-.05.87-.05,1.31,0,5.46,3.06,12.29,16.99,12.29,9.61,0,16.06-4.75,16.06-12.29,0-14.69-23.16-10.32-23.16-16.72Zm39.16,19.61v-6.55h17.64v-8.63h-17.64v-6.55h20.1v-8.63h-29.61v39h29.88v-8.63h-20.37Zm-64.91-7.32c0,5.57-2.62,8.03-8.14,8.03s-8.19-2.46-8.19-8.03v-23.05h-9.5v23.27c0,11.47,6.61,16.5,17.7,16.5s17.64-5.03,17.64-16.5v-23.27h-9.5v23.05Zm-173.8,15.95h9.5v-39h-9.5v39Zm34.74-39.77c-11.31,0-17.64,5.03-17.64,16.5v23.27h9.5v-23.05c0-5.57,2.62-8.03,8.14-8.03s8.19,2.46,8.19,8.03v23.05h9.51v-23.27c0-11.47-6.61-16.5-17.7-16.5Zm87.14,0c-12.51,0-20.16,7.27-20.16,20.27s7.65,20.27,20.16,20.27,20.1-7.27,20.1-20.27-7.65-20.27-20.1-20.27Zm0,31.85c-6.17,0-10.11-4.32-10.11-11.58s3.93-11.58,10.11-11.58,10.05,4.31,10.05,11.58-3.93,11.58-10.05,11.58Zm-126.99-31.08h-11.14l-14.04,16.99h-.55v-16.99h-9.51v39h9.51v-16.93h.55l13.98,16.93h12.29l-16.61-20.1,15.51-18.9Zm91.03,15.18h-16.33v-15.18h-9.5v39h9.5v-15.18h16.33v15.18h9.5v-39h-9.5v15.18Z"/>
</svg>